<?xml version="1.0" standalone="no"?>
<!DOCTYPE svg PUBLIC "-//W3C//DTD SVG 20010904//EN"
 "http://www.w3.org/TR/2001/REC-SVG-20010904/DTD/svg10.dtd">
<svg version="1.0" xmlns="http://www.w3.org/2000/svg"
 width="146.000000pt" height="156.000000pt" viewBox="0 0 146.000000 156.000000"
 preserveAspectRatio="xMidYMid meet">

<g transform="translate(0.000000,156.000000) scale(0.100000,-0.100000)"
fill="#000000" stroke="none">
<path d="M533 1530 c-94 -36 -163 -88 -209 -157 -51 -77 -65 -122 -71 -223 -4
-67 -2 -88 9 -97 9 -8 60 -13 134 -15 l119 -3 3 -37 c2 -28 11 -43 32 -58 16
-11 31 -33 35 -49 3 -16 15 -37 26 -47 13 -12 19 -30 19 -59 0 -24 6 -48 14
-54 12 -10 20 -51 33 -175 l5 -49 -31 6 c-32 7 -147 63 -341 166 -63 34 -125
64 -138 68 -24 6 -26 9 -36 56 -5 23 -12 27 -39 27 -18 0 -38 -5 -45 -12 -9
-9 -12 -108 -12 -383 0 -348 1 -373 18 -388 38 -35 92 -5 92 50 0 14 6 23 16
23 9 0 28 8 42 18 15 10 138 73 273 141 l246 124 84 -36 c46 -20 153 -74 237
-121 85 -46 178 -95 208 -108 42 -18 54 -28 54 -45 0 -25 32 -63 53 -63 7 0
21 6 30 13 16 11 17 44 15 397 l-3 385 -34 3 c-40 4 -51 -5 -60 -49 -5 -23
-14 -35 -31 -39 -14 -4 -48 -21 -77 -38 -70 -42 -398 -212 -408 -212 -7 0 -2
90 11 180 4 25 15 56 26 70 14 18 18 33 13 58 -5 27 -2 37 14 48 11 8 24 29
30 47 6 18 21 37 33 42 18 8 24 20 26 53 2 24 9 45 15 47 7 2 62 6 123 8 62 3
117 8 124 12 20 12 6 158 -20 230 -18 48 -39 76 -105 141 -92 92 -158 125
-260 130 l-60 3 47 -9 c121 -22 230 -83 291 -164 38 -49 77 -147 76 -188 0
-27 -4 -22 -18 29 -21 72 -58 130 -115 179 -54 46 -76 45 -75 -3 0 -21 4 -46
8 -56 14 -36 0 -83 -37 -123 -46 -50 -79 -97 -84 -121 -4 -22 -73 -30 -279
-32 -101 -1 -140 2 -154 13 -17 12 -20 30 -23 145 -3 72 -8 131 -12 131 -17 0
-60 -63 -70 -103 -6 -23 -15 -58 -21 -77 -5 -19 -9 -50 -9 -68 0 -22 -4 -31
-11 -26 -8 4 -10 31 -7 78 9 135 90 262 205 324 58 30 140 57 198 65 17 2 9 4
-20 5 -32 0 -76 -10 -122 -28z m654 -402 c-3 -7 -5 -2 -5 12 0 14 2 19 5 13 2
-7 2 -19 0 -25z m-434 -200 c10 -5 17 -20 17 -37 0 -25 -4 -29 -40 -35 -57 -9
-87 1 -105 37 -8 16 -14 31 -13 33 2 1 19 7 38 12 36 10 71 7 103 -10z m-636
-130 c11 -16 1 -627 -11 -646 -23 -37 -30 20 -37 315 -5 169 -6 316 -3 326 6
20 37 23 51 5z m633 -3 c7 -8 10 -22 6 -31 -9 -23 -70 -15 -74 10 -7 33 45 49
68 21z m641 3 c1 -16 0 -139 -5 -402 -3 -161 -7 -210 -17 -217 -10 -6 -16 0
-21 24 -9 37 -19 587 -12 599 8 13 54 9 55 -4z m-957 -206 c133 -71 249 -131
259 -135 38 -14 12 -41 -38 -39 -18 1 -63 -10 -101 -24 -168 -62 -210 -74
-290 -79 l-83 -5 -8 37 c-14 65 -4 373 11 373 5 0 118 -58 250 -128z m861 -20
c6 -142 2 -225 -14 -251 -5 -8 -36 -12 -88 -13 -71 0 -88 4 -156 36 -41 19
-106 40 -143 47 -76 13 -137 35 -132 48 2 5 55 36 118 69 63 33 176 94 250
135 74 42 140 76 146 76 8 1 14 -48 19 -147z m-530 128 c9 -15 -4 -47 -22 -54
-22 -9 -58 27 -50 48 7 18 62 22 72 6z m-5 -141 c0 -42 -19 -66 -38 -47 -16
16 -15 91 0 106 18 18 38 -12 38 -59z"/>
</g>
</svg>
